<?xml version="1.0" standalone="no"?>
<!DOCTYPE svg PUBLIC "-//W3C//DTD SVG 20010904//EN"
 "http://www.w3.org/TR/2001/REC-SVG-20010904/DTD/svg10.dtd">
<svg version="1.0" xmlns="http://www.w3.org/2000/svg"
 width="1280.000000pt" height="640.000000pt" viewBox="0 0 1280.000000 640.000000"
 preserveAspectRatio="xMidYMid meet">
<metadata>
Created by potrace 1.15, written by Peter Selinger 2001-2017
</metadata>
<g transform="translate(0.000000,640.000000) scale(0.100000,-0.100000)"
fill="#000000" stroke="none">
<path d="M3317 5683 c-15 -14 -6 -51 18 -73 l24 -23 -138 -77 c-742 -416
-1498 -996 -2014 -1545 -582 -620 -940 -1204 -1138 -1854 -49 -163 -79 -305
-66 -317 15 -15 51 17 171 152 567 642 1013 1000 1249 1006 41 0 70 11 152 54
202 107 435 192 635 231 146 28 425 25 540 -5 169 -46 361 -160 425 -254 29
-42 66 -68 99 -68 14 0 101 -15 194 -34 758 -154 1293 -372 1534 -624 89 -93
139 -185 146 -268 4 -50 2 -57 -35 -106 -61 -82 -93 -142 -93 -176 0 -24 4
-32 18 -32 30 0 131 71 226 159 l88 83 57 -7 c78 -9 180 -46 259 -93 226 -136
502 -436 755 -822 71 -109 75 -119 82 -188 6 -65 10 -74 31 -82 13 -5 34 -6
46 -1 21 7 22 15 23 97 1 81 5 101 49 219 166 452 384 751 631 870 61 30 179
64 221 65 6 0 33 -28 61 -63 55 -68 182 -172 224 -182 24 -6 28 -3 39 30 25
75 -13 151 -87 176 -18 6 -33 14 -33 18 0 15 256 126 435 187 522 180 1105
222 1537 113 42 -10 80 -19 85 -19 4 0 35 21 68 45 33 25 99 66 147 90 358
185 749 162 1135 -67 125 -74 285 -205 326 -266 33 -50 80 -82 118 -82 32 0
172 -47 263 -89 177 -80 384 -260 499 -434 122 -183 216 -410 222 -535 4 -76
20 -142 35 -142 11 0 72 101 104 173 78 178 110 348 110 592 0 154 -4 200 -27
316 -109 559 -412 1115 -945 1735 -290 338 -757 800 -1031 1021 -22 18 -23 21
-8 49 8 16 34 50 57 76 31 36 41 54 38 75 -5 49 -38 41 -166 -39 -596 -375
-1425 -711 -2170 -879 -437 -99 -1023 -172 -1063 -132 -7 7 -13 66 -16 160 -7
185 1 210 73 238 208 78 338 292 373 616 18 164 25 429 12 429 -6 0 -59 -39
-118 -86 -217 -172 -391 -279 -475 -290 -42 -6 -47 -4 -102 45 -128 111 -326
137 -539 71 -34 -11 -65 -20 -68 -20 -3 0 -53 58 -112 128 -167 201 -292 313
-317 285 -20 -22 -53 -161 -70 -298 -16 -124 -13 -408 5 -504 35 -182 111
-281 215 -281 l30 0 0 -174 0 -174 -69 -16 c-100 -23 -115 -21 -263 30 -481
167 -970 441 -1503 841 -258 194 -406 317 -808 667 -306 267 -330 286 -366
286 -21 0 -41 -3 -44 -7z"/>
</g>
</svg>
