<?xml version="1.0" standalone="no"?>
<!DOCTYPE svg PUBLIC "-//W3C//DTD SVG 20010904//EN"
 "http://www.w3.org/TR/2001/REC-SVG-20010904/DTD/svg10.dtd">
<svg version="1.0" xmlns="http://www.w3.org/2000/svg"
 width="1280.000000pt" height="840.000000pt" viewBox="0 0 1280.000000 840.000000"
 preserveAspectRatio="xMidYMid meet">
<metadata>
Created by potrace 1.15, written by Peter Selinger 2001-2017
</metadata>
<g transform="translate(0.000000,840.000000) scale(0.100000,-0.100000)"
fill="#000000" stroke="none">
<path d="M4555 8363 c-39 -224 -163 -436 -343 -586 -87 -72 -189 -142 -307
-209 -105 -60 -206 -110 -211 -106 -2 3 19 21 47 43 96 73 109 89 109 134 0
46 -22 96 -83 185 l-40 59 -34 -67 c-30 -59 -37 -67 -56 -62 -65 19 -79 18
-107 -3 -16 -11 -31 -21 -33 -21 -2 0 -21 28 -42 61 -27 44 -40 58 -46 48 -13
-25 -39 -180 -39 -239 0 -79 16 -95 114 -120 100 -25 109 -34 26 -25 -242 25
-415 123 -637 363 -65 69 -144 153 -175 186 l-57 61 -22 -30 c-71 -91 -219
-198 -380 -274 -105 -49 -279 -118 -334 -131 -20 -6 1 -8 65 -9 115 -1 198
-21 263 -63 55 -35 93 -86 143 -191 l34 -73 73 19 c41 10 111 19 162 20 80 1
97 -2 147 -26 32 -16 74 -47 93 -70 38 -43 89 -143 121 -234 10 -29 21 -53 24
-53 3 0 11 14 19 31 39 88 191 75 411 -36 157 -79 319 -207 342 -271 6 -19 15
-34 18 -34 3 0 23 48 45 108 148 411 339 587 495 456 22 -19 31 -22 34 -12 75
243 110 329 167 413 72 105 125 134 250 135 126 0 130 2 158 73 51 131 103
195 281 347 136 116 195 175 165 167 -11 -3 -63 -16 -115 -30 -284 -77 -504
-50 -707 83 l-32 21 -6 -38z"/>
<path d="M7425 7724 c-267 -171 -599 -318 -850 -380 -121 -30 -319 -54 -435
-54 -162 1 -405 45 -556 101 -30 12 -58 19 -60 16 -3 -3 0 -63 7 -133 51 -566
-150 -1112 -609 -1649 -126 -148 -404 -420 -597 -586 -190 -162 -211 -178
-174 -128 14 18 77 103 138 188 l113 153 -4 62 c-2 36 -13 80 -26 108 -32 66
-135 174 -282 295 l-125 104 -31 -143 c-17 -79 -33 -154 -37 -168 -6 -25 -7
-25 -109 -22 -122 3 -148 -8 -200 -87 -18 -28 -36 -50 -39 -48 -4 1 -62 52
-129 112 -67 61 -125 111 -128 113 -15 5 6 -374 26 -468 21 -97 62 -218 87
-257 23 -35 128 -47 340 -39 99 4 177 5 174 1 -14 -13 -269 -56 -391 -64 -297
-22 -580 27 -883 151 -196 80 -372 176 -728 397 -204 127 -463 281 -471 281
-2 0 -11 -21 -21 -47 -41 -111 -143 -273 -259 -410 -94 -113 -302 -315 -436
-424 -216 -177 -624 -463 -687 -482 -18 -6 -33 -14 -33 -19 0 -12 10 -10 76
11 341 112 617 120 822 25 137 -63 254 -165 415 -361 l68 -81 67 41 c245 149
523 237 707 223 250 -18 411 -135 690 -499 66 -86 123 -156 128 -157 4 0 7 21
7 48 1 128 99 212 292 249 155 29 455 6 723 -57 267 -63 553 -170 725 -270 80
-46 180 -138 180 -164 0 -9 5 -16 10 -16 6 0 10 2 10 4 0 3 7 88 15 191 61
756 231 1208 503 1342 52 25 67 28 162 28 85 0 116 -5 165 -24 33 -12 67 -25
76 -28 14 -4 17 20 22 204 17 541 99 879 257 1056 67 74 184 132 360 177 145
38 270 91 270 115 0 118 51 366 102 495 63 159 128 265 328 536 70 94 150 204
178 245 57 86 144 239 134 238 -4 0 -38 -21 -77 -45z"/>
<path d="M11875 5388 c-46 -293 -238 -543 -570 -743 -107 -64 -285 -158 -290
-153 -3 2 17 21 43 41 97 75 112 92 112 137 0 45 -22 95 -83 184 l-40 59 -34
-67 c-30 -59 -37 -67 -56 -62 -66 19 -79 19 -108 -3 -17 -13 -32 -21 -34 -19
-1 1 -20 30 -40 62 -37 58 -38 59 -47 35 -17 -45 -38 -173 -38 -230 0 -83 12
-93 158 -129 61 -15 52 -22 -20 -15 -163 17 -323 84 -455 190 -46 36 -155 145
-244 241 -88 96 -163 174 -167 174 -4 0 -20 -18 -36 -40 -52 -69 -190 -171
-326 -240 -87 -44 -319 -137 -367 -147 -30 -6 -14 -9 82 -14 209 -11 289 -62
374 -236 l44 -90 71 19 c106 30 236 29 303 -1 85 -38 143 -114 203 -266 41
-103 40 -102 57 -67 18 37 67 62 120 62 175 0 573 -229 638 -367 21 -43 14
-53 71 102 20 55 57 141 83 190 133 255 262 335 396 245 40 -26 42 -26 50 13
14 61 73 227 109 301 47 98 122 179 183 200 26 9 80 16 122 16 115 0 113 -1
170 114 59 121 105 175 260 305 138 117 197 177 165 167 -354 -107 -601 -91
-821 54 l-31 21 -7 -43z"/>
<path d="M6321 4058 c42 -83 90 -158 240 -368 156 -220 168 -237 222 -346 84
-167 131 -332 143 -506 l7 -87 61 -30 c34 -16 113 -44 176 -61 63 -17 144 -45
180 -62 220 -107 321 -392 350 -983 5 -115 10 -220 10 -232 l0 -22 63 26 c83
34 187 42 259 18 212 -69 366 -385 442 -905 14 -96 25 -206 42 -412 3 -43 9
-78 13 -78 4 0 15 16 24 35 23 48 120 117 262 186 154 75 283 121 470 169 358
92 651 99 805 20 73 -37 120 -114 120 -198 0 -31 10 -21 123 130 236 315 372
417 582 435 162 13 382 -58 614 -199 35 -21 67 -35 71 -31 4 4 36 44 71 88
158 197 266 283 412 331 72 24 97 27 212 27 144 0 228 -15 393 -68 56 -18 102
-29 102 -25 0 5 -9 12 -21 15 -25 8 -175 110 -329 224 -185 136 -335 264 -481
410 -190 190 -315 364 -389 538 l-26 62 -120 -73 c-65 -40 -195 -122 -289
-182 -484 -314 -753 -436 -1062 -483 -119 -18 -365 -14 -495 9 -193 34 -191
38 15 39 239 1 244 3 280 100 15 39 33 100 41 135 19 79 38 309 34 394 l-3 62
-114 -107 c-63 -59 -116 -103 -118 -96 -2 6 -20 32 -38 57 -44 57 -84 71 -182
62 -40 -3 -73 -4 -73 -1 0 11 -60 289 -63 292 -7 6 -235 -196 -280 -249 -60
-71 -97 -150 -97 -210 0 -45 7 -57 115 -209 64 -89 114 -163 112 -165 -7 -8
-236 203 -417 385 -296 297 -463 517 -598 792 -116 234 -170 425 -193 684 -10
120 -9 181 7 352 l6 61 -68 -25 c-38 -13 -116 -36 -174 -51 -96 -24 -122 -26
-305 -27 -173 0 -214 3 -303 23 -229 51 -477 157 -730 311 -73 45 -135 81
-138 81 -2 0 10 -28 27 -62z"/>
<path d="M3792 2812 c41 -42 88 -102 104 -132 26 -50 29 -64 29 -150 0 -83 -4
-105 -31 -172 l-31 -77 65 -38 c84 -48 165 -123 200 -182 24 -41 27 -56 27
-136 0 -84 -3 -97 -47 -204 -26 -63 -46 -116 -45 -118 2 -1 17 1 33 6 96 26
196 -96 268 -327 50 -159 71 -361 46 -428 -6 -15 -9 -28 -7 -30 2 -3 46 16 98
40 316 150 543 177 636 75 26 -28 43 -71 43 -105 0 -13 3 -24 8 -24 4 0 66 29
137 64 163 81 241 107 331 114 98 6 129 -7 225 -94 46 -41 91 -74 101 -74 10
0 35 8 56 19 110 55 239 69 462 48 85 -8 172 -12 193 -10 l37 5 -87 50 c-239
137 -375 283 -439 474 -13 40 -24 81 -24 91 0 40 -14 43 -60 12 -102 -69 -219
-118 -343 -144 -136 -29 -396 -16 -572 30 -88 23 -299 88 -307 94 -4 4 37 3
91 -2 116 -10 137 -2 169 66 16 35 52 177 52 207 0 5 -33 -2 -72 -16 -41 -14
-74 -20 -76 -15 -12 36 -52 76 -82 85 -19 5 -36 10 -38 12 -2 1 4 30 13 64 9
34 15 66 13 71 -10 29 -258 -173 -258 -210 0 -16 36 -85 75 -146 l19 -30 -23
20 c-32 27 -103 129 -135 192 -14 28 -38 91 -53 140 l-28 88 2 323 1 323 -62
-6 c-151 -16 -430 59 -690 186 l-99 48 75 -77z"/>
</g>
</svg>
